<?xml version="1.0" encoding="UTF-8" standalone="no"?>
<svg
   xmlns:dc="http://purl.org/dc/elements/1.1/"
   xmlns:cc="http://creativecommons.org/ns#"
   xmlns:rdf="http://www.w3.org/1999/02/22-rdf-syntax-ns#"
   xmlns:svg="http://www.w3.org/2000/svg"
   xmlns="http://www.w3.org/2000/svg"
   xmlns:sodipodi="http://sodipodi.sourceforge.net/DTD/sodipodi-0.dtd"
   xmlns:inkscape="http://www.inkscape.org/namespaces/inkscape"
   width="1000"
   height="1000"
   viewBox="0 0 264.58333 264.58334"
   version="1.1"
   id="svg8"
   inkscape:version="1.0.1 (3bc2e813f5, 2020-09-07)"
   sodipodi:docname="pfp (circle 1000x1000).svg">
  <defs
     id="defs2" />
  <sodipodi:namedview
     id="base"
     pagecolor="#ffffff"
     bordercolor="#666666"
     borderopacity="1.0"
     inkscape:pageopacity="0.0"
     inkscape:pageshadow="2"
     inkscape:zoom="0.25"
     inkscape:cx="-1029.5583"
     inkscape:cy="285.14615"
     inkscape:document-units="px"
     inkscape:current-layer="layer1"
     inkscape:document-rotation="0"
     showgrid="false"
     showguides="true"
     inkscape:guide-bbox="true"
     inkscape:window-width="1920"
     inkscape:window-height="1017"
     inkscape:window-x="-8"
     inkscape:window-y="-8"
     inkscape:window-maximized="1"
     units="px"
     inkscape:lockguides="false">
    <sodipodi:guide
       position="527.05,582.08334"
       orientation="1,0"
       id="guide954" />
    <sodipodi:guide
       position="41.79073,159.8104"
       orientation="0,-1"
       id="guide835" />
    <sodipodi:guide
       position="132.29508,22.397052"
       orientation="1,0"
       id="guide837" />
  </sodipodi:namedview>
  <metadata
     id="metadata5">
    <rdf:RDF>
      <cc:Work
         rdf:about="">
        <dc:format>image/svg+xml</dc:format>
        <dc:type
           rdf:resource="http://purl.org/dc/dcmitype/StillImage" />
        <dc:title></dc:title>
      </cc:Work>
    </rdf:RDF>
  </metadata>
  <g
     inkscape:label="Layer 1"
     inkscape:groupmode="layer"
     id="layer1">
    <circle
       style="opacity:1;fill:#ffffff;fill-opacity:1;stroke:none;stroke-width:0.480378;stroke-linejoin:round;paint-order:stroke fill markers"
       id="path837"
       cx="132.29193"
       cy="132.29192"
       r="132.29167" />
    <path
       style="fill:#8264c8;fill-opacity:1;stroke:#000000;stroke-width:0.264583px;stroke-linecap:butt;stroke-linejoin:miter;stroke-opacity:1"
       d="m 145.35521,42.683617 c 0.0472,-0.646576 -0.2013,-0.399167 -0.52916,-0.661459 -0.4939,-0.395115 0.11697,-0.04709 -0.46302,-0.264583 -0.33764,-0.126614 -0.58398,-0.415144 -0.92605,-0.529167 -0.52761,-0.175871 -1.11008,-0.138041 -1.65364,-0.198437 -0.63104,-0.07012 -1.426,-0.292695 -2.05052,-0.463021 -0.32588,-0.08888 -0.65364,-0.222263 -0.99219,-0.264583 -0.45602,-0.057 -0.93221,0.05076 -1.38906,0 -0.68759,-0.0764 -1.36408,-0.09806 -2.05052,0 -0.21608,0.03087 -0.44538,-0.03087 -0.66146,0 -0.13805,0.01971 -0.25933,0.109365 -0.39688,0.132291 -0.26069,0.04345 -0.53171,0.03339 -0.79375,0.06615 -0.49441,0.0618 -0.98177,0.387133 -1.45521,0.529167 -0.58861,0.176585 -0.0838,-0.0069 -0.59531,0.06615 -0.31398,0.04485 -0.69705,0.212674 -0.99219,0.330729 -0.20634,0.08254 -0.4602,0.290478 -0.66145,0.330729 -0.0865,0.0173 -0.17728,-0.01246 -0.26459,0 -0.32791,0.04684 -0.0862,0.05175 -0.33073,0.198438 -0.40999,0.245999 -0.97666,0.281728 -1.38906,0.529166 -0.0535,0.03209 -0.0804,0.0977 -0.13229,0.132292 -0.23054,0.153696 -0.50672,0.231211 -0.7276,0.396875 -0.0748,0.05613 -0.11477,0.156604 -0.19844,0.198437 -0.32603,0.163015 -0.0809,-0.05432 -0.39688,0.198438 -0.17421,0.139369 -0.33137,0.283847 -0.52916,0.396875 -0.17123,0.09784 -0.36869,0.149958 -0.52917,0.264583 -0.0761,0.05437 -0.12232,0.144066 -0.19844,0.198438 -0.0802,0.05731 -0.18971,0.06812 -0.26458,0.132291 -0.24077,0.206375 -0.39878,0.530596 -0.66146,0.727604 -0.4763,0.357228 -0.72418,0.657469 -1.12448,1.12448 -0.25315,0.295346 -0.56203,0.611674 -0.85989,0.859895 -0.0611,0.05089 -0.14878,0.07022 -0.19844,0.132292 -0.0436,0.05445 -0.0226,0.143992 -0.0662,0.198438 -0.0497,0.06208 -0.14223,0.07608 -0.19844,0.132291 -0.19769,0.197692 -0.43394,0.501687 -0.59531,0.727604 -0.52128,0.729793 -1.04371,1.484718 -1.52136,2.248959 -0.25074,0.401193 -0.36376,0.851556 -0.59531,1.256771 -0.12344,0.216032 -0.2993,0.433784 -0.39687,0.661458 -0.13412,0.312944 -0.10935,0.681709 -0.26459,0.992187 -0.12214,0.244295 -0.28369,0.445376 -0.33073,0.727605 -0.10377,0.62267 0.15868,-0.323843 -0.0661,0.46302 -0.10361,0.362644 -0.30486,0.690274 -0.39687,1.058334 -0.30374,1.214969 0.066,-0.263779 -0.0661,0.529166 -0.048,0.287952 -0.19392,0.577226 -0.26458,0.859896 -0.0364,0.145532 0.0295,0.315632 0,0.463021 -0.0402,0.200882 -0.0987,0.393592 -0.1323,0.595312 -0.0501,0.300332 0.0378,0.623671 0,0.926042 -0.0757,0.605803 -0.16896,1.367467 -0.0661,1.984375 0.0162,0.09726 0.11296,0.167894 0.1323,0.264583 0.0876,0.438071 0.29343,1.108819 0.52916,1.521355 0.0192,0.164351 0.19195,0.209669 0.26459,0.330729 0.0387,0.06458 0.0654,0.2638 0.13229,0.330729 0.11323,0.113236 0.22429,0.188809 0.33073,0.330729 0.14053,0.187381 0.0172,0.06899 0.0661,0.264583 0.0615,0.24592 0.11951,0.04059 0.26458,0.33073 0.0296,0.05916 -0.0261,0.137638 0,0.198437 0.07,0.163388 0.18509,0.304025 0.26458,0.463021 0.16187,0.323739 0.08,0.08464 0.26459,0.330729 0.1228,0.163735 0.1493,0.37546 0.26458,0.529167 0.19853,0.264713 0.44691,0.446913 0.66146,0.661458 0.11718,0.117184 0.14496,0.343395 0.26458,0.463021 0.21479,0.214789 0.51281,0.380521 0.72761,0.595312 0.0562,0.05621 0.0712,0.147545 0.13229,0.198438 0.0758,0.06312 0.18254,0.07759 0.26458,0.132292 0.4091,0.272729 0.78065,0.471371 1.19063,0.727604 0.36124,0.225777 0.68679,0.515294 1.05833,0.727604 0.35133,0.200758 0.70974,0.396118 1.05833,0.595312 0.12108,0.06919 0.27215,0.06993 0.39688,0.132292 0.7943,0.397153 -0.28451,-0.104558 0.33073,0.264583 0.26369,0.158219 0.5807,0.257281 0.85989,0.396875 0.19232,0.09616 0.39139,0.262755 0.59531,0.330729 0.39066,0.13022 0.15029,-0.01807 0.52917,0.198438 0.23517,0.134382 0.4804,0.290931 0.72761,0.396875 0.45402,0.19458 1.00119,0.202295 1.45521,0.396875 0.0731,0.03132 0.12131,0.113011 0.19843,0.132292 0.10695,0.02674 0.22116,-0.01217 0.33073,0 0.61287,0.06809 1.23622,0.0707 1.85209,0.132291 0.46718,0.04672 0.9264,0.132342 1.38906,0.198438 0.13096,0.01871 0.26591,-0.01871 0.39687,0 0.6841,0.09773 -0.20848,0.04298 0.59532,0.132291 0.32616,0.03624 0.66501,-0.02516 0.99218,0 1.40866,0.108358 2.81663,0.132292 4.23334,0.132292 0.30985,0 1.9293,-0.402413 2.18281,-0.529167 0.15552,-0.07776 0.24278,-0.147071 0.39687,-0.198437 0.0301,-0.01003 0.34946,-0.17971 0.26459,-0.264583 -0.0156,-0.01558 -0.0539,0.01833 -0.0661,0 -0.0659,-0.09879 -0.0712,-0.228915 -0.13229,-0.33073 -0.1859,-0.309824 -0.43605,-0.641228 -0.7276,-0.859895 -0.25659,-0.19244 -0.49914,-0.448003 -0.79375,-0.595313 -0.22404,-0.112019 -0.46107,-0.163735 -0.66146,-0.330729 -0.14373,-0.119772 -0.24121,-0.293097 -0.39688,-0.396875 -0.058,-0.03868 -0.13607,-0.03496 -0.19843,-0.06615 -0.12032,-0.06016 -0.21844,-0.197207 -0.33073,-0.264583 -0.19585,-0.117504 -0.40985,-0.17617 -0.59532,-0.330729 -0.0719,-0.05989 -0.13229,-0.132292 -0.19843,-0.198438 -0.0882,-0.0441 -0.18435,-0.07498 -0.26459,-0.132291 -0.12686,-0.09062 -0.19704,-0.250516 -0.33073,-0.33073 -0.0598,-0.03587 -0.14399,-0.02259 -0.19843,-0.06614 -0.0621,-0.04966 -0.0761,-0.142225 -0.1323,-0.198438 -0.18375,-0.18375 -0.43356,-0.313497 -0.59531,-0.529167 -0.24949,-0.332655 -0.55157,-0.653134 -0.79375,-0.992187 -0.0573,-0.08024 -0.075,-0.184346 -0.13229,-0.264583 -0.19698,-0.27577 -0.1898,-0.148585 -0.46302,-0.33073 -0.17429,-0.116197 -0.50505,-0.438898 -0.66146,-0.595312 -0.25759,-0.257596 -0.46037,-0.624411 -0.66146,-0.926042 -0.12426,-0.186399 -0.40854,-0.272359 -0.59531,-0.396875 -0.13713,-0.09142 -0.22508,-0.225078 -0.33073,-0.330729 -0.43793,-0.43793 0.17335,0.305639 -0.26458,-0.132292 -0.048,-0.04799 -0.23055,-0.262657 -0.26459,-0.330729 -0.0474,-0.09489 -0.0654,-0.230338 -0.13229,-0.330729 -0.0783,-0.11747 -0.20144,-0.204454 -0.26458,-0.330729 -0.15959,-0.07985 -0.0159,-0.230172 -0.0662,-0.330729 -0.38251,-0.76503 0.0659,0.39615 -0.19843,-0.264584 -0.13912,-0.347797 -0.32275,-0.753842 -0.39688,-1.124479 -0.0707,-0.353377 0.12569,0.148865 -0.0661,-0.330729 -0.15332,-0.383286 -0.31899,-0.73502 -0.39688,-1.124479 -0.073,-0.364879 -0.0785,-0.747908 -0.13229,-1.124479 -0.14757,-1.032994 0.32089,-1.737662 0.66146,-2.645833 0.12717,-0.339133 0.007,-0.218131 0.13229,-0.595313 0.13901,-0.417049 0.32733,-0.849707 0.46302,-1.256771 0.0251,-0.07542 0.10277,-0.124626 0.13229,-0.198437 0.0592,-0.147863 0.11062,-0.397444 0.19844,-0.529167 0.0122,-0.01834 0.0506,0.01558 0.0661,0 0.0697,-0.06972 0.0626,-0.19486 0.1323,-0.264583 0.31609,-0.316093 0.6948,-0.579091 0.99218,-0.926042 0.27944,-0.326009 0.56681,-0.566806 0.8599,-0.859896 0.0562,-0.05621 0.0702,-0.148775 0.13229,-0.198437 0.0545,-0.04356 0.14399,-0.0226 0.19844,-0.06615 0.0621,-0.04966 0.0761,-0.142224 0.13229,-0.198438 0.078,-0.07795 0.18663,-0.120483 0.26458,-0.198437 0.22952,-0.229523 0.38365,-0.476253 0.66146,-0.661458 0.26991,-0.179938 0.45715,-0.524762 0.72761,-0.727605 0.0499,-0.03742 0.0882,-0.08819 0.13229,-0.132291 0.0441,-0.06615 0.0702,-0.148775 0.13229,-0.198438 0.0544,-0.04356 0.14399,-0.0226 0.19844,-0.06615 0.0621,-0.04966 0.0712,-0.147544 0.13229,-0.198437 0.29846,-0.248719 0.66812,-0.379267 0.99219,-0.595313 0.3399,-0.226605 0.64293,-0.509322 0.99218,-0.727604 0.413,-0.258122 0.88729,-0.509791 1.32292,-0.727604 1.074,-0.536998 -0.28891,0.180515 0.59531,-0.198437 0.27327,-0.117113 0.52651,-0.329399 0.79375,-0.463021 0.12473,-0.06236 0.2773,-0.06055 0.39688,-0.132292 0.17713,-0.106275 0.25736,-0.257363 0.39687,-0.396875 0.33231,-0.332311 0.0697,0.01035 0.33073,-0.198437 0.31518,-0.252143 1.11651,-1.013307 1.32292,-1.322917 -0.007,-0.13104 0.0974,-0.03128 0.13229,-0.06615 0.0156,-0.01558 -0.0156,-0.05056 0,-0.06615 0.022,-0.02204 0.17639,-0.0441 0.19844,-0.06614 0.0156,-0.01558 -0.0197,-0.05629 0,-0.06615 0.0394,-0.01971 0.0905,0.01394 0.13229,0 0.17772,-0.05924 0.2154,-0.20016 0.26458,-0.396875 z"
       id="path950" />
    <path
       style="fill:#000000;fill-opacity:1;stroke-width:0.264583"
       d="m 111.56269,176.32439 c -1.30248,-0.56686 -1.6876,-1.34282 -1.6876,-3.40024 0,-2.81252 0.025,-2.83292 3.37953,-2.76272 2.69283,0.0563 2.9093,0.02 4.22683,-0.70931 1.22371,-0.67739 7.06514,-5.80528 9.16829,-8.04836 l 0.76736,-0.81842 -2.29891,-2.41576 c -5.41138,-5.68643 -8.10402,-11.1735 -8.09621,-16.49847 0.008,-5.13628 2.08736,-8.57149 6.43,-10.62033 4.42199,-2.08629 11.94734,-2.24487 16.99032,-0.35805 6.87368,2.57177 9.16373,10.50791 5.3533,18.55179 -1.56199,3.29739 -2.80199,5.08817 -5.8955,8.51411 -1.40111,1.55168 -2.46176,2.82554 -2.46176,2.82554 0,0 8.21734,8.01193 9.61072,8.77207 1.52076,0.82964 1.70984,0.86605 4.49791,0.86605 2.99028,0 2.98682,-10e-4 2.98682,2.3133 0.0447,1.35302 -0.0465,2.54301 -0.21974,2.86667 -0.49639,0.92752 -1.85762,1.30232 -4.72995,1.30232 -5.69787,0 -7.21836,-0.75816 -12.79058,-6.37777 -2.29356,-2.31306 -4.3132,-4.20556 -4.4881,-4.20556 -0.17491,0 -2.28695,1.95069 -4.69345,4.33488 -4.50422,4.46248 -5.47597,5.1623 -8.12712,5.85283 -1.93546,0.50412 -6.77766,0.51356 -7.92218,0.0154 z M 129.70491,73.788742 c -3.54707,-0.64845 -7.19234,-2.319457 -10.45252,-5.026271 -2.78835,-2.31507 -3.90823,-4.564575 -4.37223,-7.648035 -0.48741,-3.239 0.47783,-7.88791 2.29642,-11.06038 2.81281,-4.90684 7.35683,-8.655702 13.25042,-10.506354 1.72561,-0.541859 3.17119,-0.969565 6.96476,-1.076724 5.89284,-0.166459 7.96008,0.713258 10.58912,2.496576 1.08754,0.737692 1.54864,1.578413 1.54864,2.252793 0,1.02135 -1.13486,1.728819 -2.61514,2.253339 -4.44027,1.57337 -9.57273,5.08627 -11.79352,7.30705 -2.55369,2.55369 -3.13404,4.69564 -2.10575,7.77177 0.39159,1.17145 0.90442,1.87248 2.62999,3.59514 2.52092,2.51667 4.64678,3.78222 8.59788,5.1184 2.18805,0.73996 2.87253,1.09054 3.16978,1.62354 0.51145,0.91708 0.20433,1.99773 -0.69827,2.45694 -1.8832,0.95812 -14.20841,0.954304 -17.00958,0.442216 z M 137.35,70.532106 c -0.24125,-0.17727 -1.18003,-0.8571 -2.08618,-1.51073 -6.34044,-4.57353 -8.30883,-11.21095 -4.90099,-16.52615 1.76446,-2.75203 6.13754,-6.02879 11.25286,-8.43179 2.67872,-1.25837 2.5737,-1.35508 -1.92617,-1.77363 -3.32966,-0.30971 -5.84769,-0.0668 -8.32177,0.80276 -4.20422,1.47767 -9.25202,5.67927 -10.99093,9.14847 -2.00006,3.99018 -2.32614,8.08478 -0.87935,11.04192 1.4413,2.94591 6.16313,6.182843 9.95679,7.0315 1.81086,0.405098 3.08257,0.436108 5.55625,0.51235 2.24187,0.0691 2.69361,-0.0345 2.33949,-0.2947 z"
       id="path907"
       sodipodi:nodetypes="ssssscscsssscsccsssssssssssssssssssssssssssssssssss" />
    <path
       style="fill:#000000;fill-opacity:1;stroke:#000000;stroke-width:0.264583px;stroke-linecap:butt;stroke-linejoin:miter;stroke-opacity:1"
       d="m 84.449605,135.81415 c 0,0.71302 6.14025,0.71302 6.14025,-0.0134 -2.42159,-41.187838 -60.00415,-41.188088 -62.42,-2.5e-4 0,0.72644 6.14,0.72669 6.14,2.6e-4 3.18257,-33.13945 46.97642,-33.13945 50.13975,0.0134 z"
       id="path851-8"
       sodipodi:nodetypes="cccccc" />
    <path
       style="fill:#000000;fill-opacity:1;stroke:#000000;stroke-width:0.264583px;stroke-linecap:butt;stroke-linejoin:miter;stroke-opacity:1"
       d="m 230.32727,135.79939 c 0,0.71302 6.14025,0.71302 6.14025,-0.0134 -2.4216,-41.187828 -60.00415,-41.188078 -62.42,-2.3e-4 0,0.72644 6.13999,0.72668 6.13999,2.5e-4 3.18258,-33.13945 46.97642,-33.13945 50.13976,0.0134 z"
       id="path851-8-1"
       sodipodi:nodetypes="cccccc" />
  </g>
</svg>
